# xmcd CD database file
#
# Track frame offsets:
#       150
#       3297
#       13903
#       32158
#       61608
#       76927
#       103324
#       123667
#       146154
#       188530
#       208210
#       250167
#
# Disc length: 3625 seconds
#
# Revision: 7
# Processed by: cddbd v1.5.2PL0 Copyright (c) Steve Scherf et al.
# Submitted via: CDDBEditor PBVER-PBREV
#
DISCID=a20e270c
DTITLE=Franz Liszt - Études d'exécution transcendante, S139  (Boris Berezovsky, piano)
DYEAR=1996
DGENRE=Piano
TTITLE0=Étude d'exécution transcendante  N° I  in C major - Preludio - Presto
TTITLE1=Étude d'exécution transcendante  N° II  in A minor - Molto vivace
TTITLE2=Étude d'exécution transcendante  N° III  in F major - Paysage - Pocco adagio
TTITLE3=Étude d'exécution transcendante  N° IV  in D minor - Mazeppa - Allegro
TTITLE4=Étude d'exécution transcendante  N° V  in B flat major - Feux follets - Allegretto
TTITLE5=Étude d'exécution transcendante  N° VI  in G minor - Vision - Lento
TTITLE6=Étude d'exécution transcendante  N° VII  in E flat major - Eroica - Allegro
TTITLE7=Étude d'exécution transcendante  N° VIII  in C minor - Wilde Jagd - Presto furioso
TTITLE8=Étude d'exécution transcendante  N° IX  in A flat major - Ricordanza - Andantino
TTITLE9=Étude d'exécution transcendante  N° X  in F minor - Allegro agitato molto
TTITLE10=Étude d'exécution transcendante  N° XI  in D flat major - Harmonies du soir - Andantino
TTITLE11=Étude d'exécution transcendante  N° XII  in B flat minor - Chasse-neige - Andante con molto
EXTD=
EXTT0=
EXTT1=
EXTT2=
EXTT3=
EXTT4=
EXTT5=
EXTT6=
EXTT7=
EXTT8=
EXTT9=
EXTT10=
EXTT11=
PLAYORDER=
